<svg xmlns="http://www.w3.org/2000/svg" data-name="Layer 2" viewBox="0 0 32 40" x="0px" y="0px"><title>Comunication</title><path d="M23.82,8.5H8.18a2.71,2.71,0,0,0-1.44.41,2.59,2.59,0,0,0-1.24,2.2V21.39A2.65,2.65,0,0,0,8.18,24H23.82a2.65,2.65,0,0,0,2.68-2.61V11.11A2.65,2.65,0,0,0,23.82,8.5Zm0,1a1.43,1.43,0,0,1,.29,0L16,15.62,7.91,9.54a1.26,1.26,0,0,1,.27,0ZM25.5,21.39A1.64,1.64,0,0,1,23.82,23H8.18A1.64,1.64,0,0,1,6.5,21.39V11.11a1.54,1.54,0,0,1,.42-1.06l8.78,6.6a.5.5,0,0,0,.6,0l8.78-6.6a1.57,1.57,0,0,1,.42,1.06Z"/><text x="0" y="47" fill="#000000" font-size="5px" font-weight="bold" font-family="'Helvetica Neue', Helvetica, Arial-Unicode, Arial, Sans-serif">Created by Ilham Fitrotul Hayat</text><text x="0" y="52" fill="#000000" font-size="5px" font-weight="bold" font-family="'Helvetica Neue', Helvetica, Arial-Unicode, Arial, Sans-serif">from the Noun Project</text></svg>